<svg xmlns="http://www.w3.org/2000/svg" viewBox="0 0 303 72" class="AfIneb BXrnac" aria-hidden="true"><defs><clipPath id="clip-path"><path d="M53 8H19a8 8 0 000 16h34z" class="cls-1"/></clipPath><clipPath id="clip-path-2"><path id="_45_mask" d="M27 37a8 8 0 00-16 0v19a8 8 0 0016 0V37z" class="cls-1" data-name="45 mask"/></clipPath><clipPath id="clip-path-3"><path d="M11 56a8 8 0 0016 0V37H11z" class="cls-1"/></clipPath><radialGradient id="radial-gradient" cx="706" cy="-295" r="22.5" fx="683.5" gradientTransform="matrix(1.78 0 0 1.78 -1219 561)" gradientUnits="userSpaceOnUse"><stop offset="0" stop-color="#fff" stop-opacity=".1"/><stop offset=".1" stop-color="#fff" stop-opacity=".1"/><stop offset=".6" stop-color="#fff" stop-opacity="0"/><stop offset="1" stop-color="#fff" stop-opacity="0"/></radialGradient><linearGradient id="linear-gradient" x1="17.6" x2="53.8" y1="35.6" y2="71.8" gradientTransform="translate(3)" gradientUnits="userSpaceOnUse"><stop offset="0" stop-color="#a50e0e" stop-opacity=".3"/><stop offset=".1" stop-color="#910c0c" stop-opacity=".3"/><stop offset=".4" stop-color="#410606" stop-opacity=".1"/><stop offset=".7" stop-color="#110101" stop-opacity=".1"/><stop offset="1" stop-opacity="0"/></linearGradient><style nonce="">.cls-1{fill:none}.cls-2{fill:#5f6368}.cls-5,.cls-8{opacity:.3}.cls-6{fill:#188038}.cls-7{fill:#fff;opacity:.2}.cls-8{fill:#0d652d}.cls-14{fill:#fa7b17}</style></defs><g id="Layer_2" data-name="Layer 2"><g id="specs"><g id="Horizontal_Fi_v5_lockup" data-name="Horizontal Fi(v5) lockup"><path d="M0 0h303v72H0z" class="cls-1"/><path d="M268 54h-5V21h20v4h-15v11h14v4h-14zM292 25a3 3 0 01-5-4 3 3 0 015 4zm0 29h-5V31h5zM114 55c-10 0-19-8-19-19s9-19 19-19a18 18 0 0113 5l-3 4a13 13 0 00-10-4 14 14 0 000 28 13 13 0 0010-4 11 11 0 003-6h-13v-6h18a17 17 0 010 4c0 3-1 8-4 12s-8 5-14 5zM159 43a12 12 0 11-24 0 12 12 0 1124 0zm-5 0c0-5-3-8-7-8s-7 3-7 8 4 7 7 7 7-3 7-7zM187 43a12 12 0 11-25 0 12 12 0 1125 0zm-5 0c0-5-4-8-7-8s-7 3-7 8 3 7 7 7 7-3 7-7zM214 31v22c0 10-6 13-12 13a12 12 0 01-11-7l4-2a7 7 0 007 4c4 0 6-2 6-7v-2a8 8 0 01-6 3 12 12 0 01-12-12c0-7 5-12 12-12a9 9 0 016 2v-2zm-5 12c0-4-3-8-7-8s-7 4-7 8 3 7 7 7 7-3 7-7zM223 18v36h-5V18zM244 47l5 3a12 12 0 01-11 5 12 12 0 01-12-12c0-8 5-12 12-12s9 5 10 7l1 2-17 7a6 6 0 006 3 7 7 0 006-3zm-13-5l12-4a5 5 0 00-5-3 7 7 0 00-7 7z" class="cls-2"/><g id="Fi_v5_" data-name="Fi (v5)"><path id="bound" d="M0 0h72v72H0z" class="cls-1"/><path fill="#34a853" d="M53 8H19a8 8 0 000 16h34z"/><g id="Shadow_mask_U_" clip-path="url(#clip-path)" data-name="Shadow mask (U)"><circle cx="53.3" cy="15.8" r="8.3" class="cls-6"/></g><path id="Green_bar_highlight" d="M19 8h34a8 8 0 019 8 8 8 0 00-9-8H19a8 8 0 00-8 8 8 8 0 018-8z" class="cls-7" data-name="Green bar highlight"/><path id="Green_bar_shade_U_" d="M53 24H19a8 8 0 01-8-8 8 8 0 008 8h34a8 8 0 009-8 8 8 0 01-9 8z" class="cls-8" data-name="Green bar shade (U)"/><circle id="Green" cx="53.3" cy="15.8" r="8.3" class="cls-6"/><path fill="#fbbc04" d="M32 29H19v16h13a8 8 0 000-16z"/><path fill="#ea4335" d="M11 56a8 8 0 0016 0V37H11z"/><g id="_45" clip-path="url(#clip-path-2)" data-name="45"><path id="_45_shadow" fill="url(#linear-gradient)" d="M72 71L28 28 13 43l29 28h30z" data-name="45 shadow" opacity=".3"/></g><g id="Orange_Mask_U_" clip-path="url(#clip-path-3)" data-name="Orange Mask (U)"><path id="drop_shadow" d="M32 29H19a8 8 0 000 16h13a8 8 0 000-16z" class="cls-14" data-name="drop shadow"/></g><path id="Orange" d="M19 29a8 8 0 000 16h8v-8a8 8 0 00-8-8z" class="cls-14"/><path id="Blue" fill="#4285f4" d="M62 37a8 8 0 00-17 0v19a8 8 0 0017 0V37z"/><g id="Green_dot_details_U_" data-name="Green dot details (U)"><path id="dot_highlight" d="M53 8a8 8 0 019 8 8 8 0 00-17 0 8 8 0 018-8z" class="cls-7" data-name="dot highlight"/><path id="dot_shade" d="M53 24a8 8 0 01-8-8 8 8 0 0017 0 8 8 0 01-9 8z" class="cls-8" data-name="dot shade"/></g><g id="Blue_details_U_" data-name="Blue details (U)"><path id="blue_highlight" d="M53 29a8 8 0 00-8 8 8 8 0 1117 0 8 8 0 00-9-8z" class="cls-7" data-name="blue highlight"/><path id="blue_shade" fill="#174ea6" d="M53 64a8 8 0 01-8-8 8 8 0 0017 0 8 8 0 01-9 8z" data-name="blue shade" opacity=".3"/></g><path id="Red_details_U_" fill="#a50e0e" d="M19 64a8 8 0 01-8-8 8 8 0 0016 0 8 8 0 01-8 8z" data-name="Red details (U)" opacity=".3"/><g id="Yellow_details_U_" data-name="Yellow details (U)"><path id="yellow_highlight" d="M19 29h13a8 8 0 019 8 8 8 0 00-9-8H19a8 8 0 00-8 8 8 8 0 018-8z" class="cls-7" data-name="yellow highlight"/><path id="yellow_shade" fill="#e37400" d="M32 45H19a8 8 0 01-8-8 8 8 0 008 8h13a8 8 0 009-8 8 8 0 01-9 8z" data-name="yellow shade" opacity=".3"/></g><path id="Finish_mask" fill="url(#radial-gradient)" d="M11 16a8 8 0 018-8h34a8 8 0 010 16H19a8 8 0 01-8-8zm21 13H19a8 8 0 00-8 8v19a8 8 0 0016 0V45h5a8 8 0 000-16zm21 0a8 8 0 00-8 8v19a8 8 0 0017 0V37a8 8 0 00-9-8z" data-name="Finish mask"/></g></g></g></g></svg>