<svg xmlns="http://www.w3.org/2000/svg" viewBox="0 0 396 130" aria-hidden="true"><path d="M51 101C23 101 0 78 0 51 0 23 23 0 51 0c15 0 26 6 35 14L76 24c-6-6-14-10-25-10-20 0-36 16-36 37 0 20 16 36 36 36 13 0 21-5 25-10 4-4 7-9 8-17H51V46h46l1 9c0 10-3 23-12 32s-20 14-35 14zm117-33c0 19-15 33-33 33s-32-14-32-33c0-18 14-32 32-32s33 14 33 32zm-15 0c0-11-8-19-18-19s-18 8-18 19c0 12 8 20 18 20s18-8 18-20zm85 0c0 19-14 33-32 33s-33-14-33-33c0-18 15-32 33-32s32 14 32 32zm-14 0c0-11-8-19-18-19s-19 8-19 19c0 12 9 20 19 20s18-8 18-20zm82-30v58c0 24-14 34-31 34-15 0-25-11-29-19l13-5c2 5 8 11 16 11 11 0 18-6 18-19v-5h-1c-3 4-9 8-17 8-16 0-31-14-31-33 0-18 15-32 31-32 8 0 14 3 17 7h1v-5h13zm-12 30c0-11-8-19-18-19s-18 8-18 19c0 12 8 20 18 20s18-8 18-20zm36-64v95h-14V4h14zm54 75l11 7c-4 6-12 15-27 15-19 0-32-14-32-33s13-32 30-32 25 13 28 21l1 3-43 18c3 7 9 10 16 10s12-4 16-9zm-34-12l29-12c-2-4-7-7-12-7-8 0-18 7-17 19z"/></svg>